<svg width="47" height="63" viewBox="0 0 47 63" fill="none" xmlns="http://www.w3.org/2000/svg">
<path d="M11.5172 26.7132C14.9144 33.2091 20.1068 35.7809 27.3188 34.2101C27.0709 38.6415 26.5402 43.0729 27.5256 47.5257C18.6394 50.9756 10.2703 55.3036 3.58324 62.4316C6.43408 56.5153 9.28492 50.6009 12.1358 44.6846C12.085 44.6573 12.0323 44.628 11.9816 44.6007C8.73465 50.439 5.48771 56.2753 2.23881 62.1136C2.97444 57.3407 3.48178 52.5874 3.34519 47.7774C3.20665 42.9421 2.50613 38.2122 0.716797 33.6306C4.63499 31.7651 8.33269 29.6363 11.5152 26.7132H11.5172Z" fill="#828282"/>
<path d="M34.2048 21.9422C34.199 27.841 29.3675 32.6763 23.4766 32.6724C17.531 32.6704 12.7094 27.8176 12.7367 21.8622C12.7621 15.9264 17.5427 11.1477 23.459 11.1457C29.4144 11.1438 34.2107 15.9615 34.2048 21.9422Z" fill="#F4530C"/>
<path d="M40.5172 34.4013C38.4801 32.8149 36.5698 31.3436 34.6887 29.8372C34.5443 29.7221 34.599 29.3767 34.5619 29.1367C34.8214 29.1289 35.1473 29.0196 35.3268 29.1348C35.92 29.5133 36.4624 29.968 37.0186 30.3992C38.3376 31.4236 39.6645 32.4363 40.9543 33.492C41.1241 33.6325 41.1865 34.0247 41.1221 34.2452C41.087 34.3642 40.6811 34.3642 40.5192 34.4013H40.5172Z" fill="#F4530C"/>
<path d="M12.5904 0.378551C12.9377 0.222447 13.1641 0.12098 13.4373 0C14.9222 3.08694 16.3954 6.1173 17.8218 9.17107C17.9194 9.37986 17.6794 9.74865 17.5955 10.0413C17.4725 10.0257 17.3496 10.0121 17.2267 9.99647C15.6988 6.82562 14.169 3.65477 12.5904 0.378551Z" fill="#F4530C"/>
<path d="M0.416287 16.1664C2.71296 16.6894 4.85352 17.1752 6.99409 17.665C7.90729 17.8738 8.82635 18.0631 9.72394 18.3245C9.98737 18.4006 10.1864 18.6992 10.4147 18.8963C10.0986 18.9938 9.75517 19.2299 9.47418 19.1694C6.85555 18.6036 4.24667 17.987 1.63389 17.384C1.22412 17.2904 0.794837 17.2396 0.416287 17.0777C0.221158 16.9938 0.0396864 16.7186 0.000660612 16.504C-0.016901 16.4045 0.320672 16.2406 0.418237 16.1645L0.416287 16.1664Z" fill="#F4530C"/>
<path d="M34.1659 0.751223C32.6888 3.80695 31.2116 6.86267 29.7267 9.93595C29.1081 9.91449 28.835 9.72912 29.1335 9.11251C30.4721 6.34558 31.7931 3.56694 33.1649 0.815615C33.2761 0.593168 33.7132 0.532678 33.9981 0.396088L34.1659 0.751223Z" fill="#F4530C"/>
<path d="M46.7868 17.1713C44.3379 17.7294 41.889 18.2894 39.4402 18.8475C38.7162 19.0133 37.9982 19.2143 37.2664 19.3216C37.0303 19.3568 36.7591 19.1402 36.5035 19.0387C36.6752 18.8709 36.8215 18.5958 37.0225 18.5489C40.0373 17.8328 43.0579 17.1343 46.0843 16.4728C46.3282 16.4201 46.6404 16.6757 46.9195 16.7869C46.8746 16.9138 46.8297 17.0425 46.7848 17.1694L46.7868 17.1713Z" fill="#F4530C"/>
<path d="M13.285 13.1225C13.0176 13.7605 12.7347 13.9518 12.2156 13.5322C10.5258 12.1663 8.80869 10.8297 7.13058 9.44819C6.95496 9.30379 6.96862 8.93305 6.89642 8.66572C7.1657 8.66767 7.52084 8.5584 7.6906 8.68913C9.56189 10.137 11.4039 11.6219 13.283 13.1225H13.285Z" fill="#F4530C"/>
<path d="M34.2888 13.9985C34.0664 13.7351 33.8849 13.5224 33.6371 13.2297C34.6147 12.4473 35.5435 11.698 36.4762 10.9545C37.3894 10.2267 38.3065 9.50277 39.3856 8.64615C39.5885 8.8686 39.7739 9.06958 40.0666 9.38764C38.0646 10.9857 36.2011 12.4726 34.2888 13.9985Z" fill="#F4530C"/>
<path d="M23.8631 1.13758C23.8631 3.39717 23.8553 5.65872 23.867 7.91832C23.8709 8.54859 23.5762 8.62078 22.9928 8.39443C22.9928 6.09191 22.9791 3.76792 23.0182 1.44783C23.0221 1.25661 23.3889 1.07124 23.586 0.883911C23.6777 0.967817 23.7694 1.05367 23.8611 1.13758H23.8631Z" fill="#F4530C"/>
<path d="M43.1125 26.9142C40.9212 26.4127 38.8743 25.9542 36.8372 25.4566C36.6811 25.4176 36.5913 25.1034 36.4723 24.9161C36.6713 24.8029 36.884 24.5746 37.0674 24.598C37.6723 24.6741 38.2675 24.8341 38.8665 24.9707C40.2832 25.2927 41.7018 25.6029 43.1086 25.9659C43.294 26.0147 43.4911 26.321 43.5262 26.5357C43.5438 26.6508 43.2277 26.8186 43.1145 26.9162L43.1125 26.9142Z" fill="#F4530C"/>
</svg>
