<svg  viewBox="0 0 120 35"  xmlns="http://www.w3.org/2000/svg">
<path d="M33.3361 14.7326C35.2097 18.3151 38.0733 19.7335 42.0508 18.8672C41.9141 21.3111 41.6214 23.7551 42.1649 26.2109C37.2641 28.1135 32.6484 30.5004 28.9604 34.4316C30.5327 31.1687 32.105 27.9069 33.6772 24.644C33.6492 24.6289 33.6202 24.6128 33.5922 24.5977C31.8015 27.8176 30.0108 31.0364 28.219 34.2562C28.6247 31.624 28.9045 29.0024 28.8291 26.3497C28.7527 23.683 28.3664 21.0744 27.3796 18.5476C29.5405 17.5188 31.5798 16.3447 33.335 14.7326H33.3361Z" fill="currentColor"/>
<path d="M45.8486 12.1013C45.8453 15.3546 43.1808 18.0213 39.9318 18.0191C36.6528 18.0181 33.9936 15.3417 34.0087 12.0572C34.0227 8.78356 36.6593 6.14805 39.9222 6.14697C43.2066 6.1459 45.8518 8.80293 45.8486 12.1013Z" fill="#F4530C"/>
<path d="M2.15985 15.7173V22.1139C2.27822 22.0214 2.34172 21.9913 2.37615 21.9428C3.96025 19.698 7.87961 19.9907 9.5907 22.002C10.4947 23.0642 11.022 24.2845 11.1554 25.6459C11.3136 27.2569 11.2717 28.8668 10.6518 30.4089C9.62406 32.968 6.89063 34.4381 4.40793 33.759C3.56423 33.5287 2.88948 33.0509 2.36001 32.3622C2.28683 32.2664 2.23302 32.1555 2.17061 32.0512C2.11034 32.0781 2.05115 32.105 1.99089 32.1319C1.99089 32.4999 1.98336 32.868 1.99304 33.2349C2.00165 33.5298 1.88543 33.6299 1.58087 33.6417C0 33.7009 0 33.7095 0 32.1437C0 26.9061 0 21.6695 0 16.4318C0 15.7183 0.00215231 15.7173 0.691968 15.7162C1.15472 15.7162 1.61746 15.7162 2.15985 15.7162V15.7173ZM9.15809 27.4861C9.04079 26.3002 8.96438 25.1605 8.45751 24.0994C7.86993 22.8705 6.95304 22.1161 5.52929 22.1204C4.11092 22.1247 2.96373 23.0125 2.38261 24.616C1.79072 26.2507 1.82301 27.9252 2.25132 29.5825C2.60968 30.9685 3.92044 32.0555 5.23658 32.1738C6.56132 32.2922 7.83872 31.5303 8.43814 30.099C8.78466 29.2736 8.92456 28.361 9.15809 27.4872V27.4861Z" fill="#F4530C"/>
<path d="M21.8847 21.9945V15.756H23.9638V33.6309C23.4258 33.6309 22.8758 33.6492 22.3302 33.6137C22.2345 33.6073 22.0881 33.3834 22.0763 33.2511C22.0418 32.869 22.0644 32.4816 22.0644 31.9747C21.8955 32.1254 21.8309 32.1609 21.7975 32.2158C20.3975 34.4757 16.7923 34.324 15.0371 32.6979C13.8275 31.5766 13.1162 30.2066 12.9268 28.5859C12.7148 26.7694 12.7707 24.9722 13.6058 23.2837C14.8251 20.8193 17.2594 19.9207 19.6248 20.5847C20.2629 20.7633 20.8139 21.2659 21.3897 21.6436C21.5393 21.7416 21.6329 21.9267 21.7523 22.0719L21.8858 21.9955L21.8847 21.9945ZM22.1344 27.8283C22.0655 26.0096 21.9181 24.6999 21.1615 23.5452C19.8239 21.5027 16.8612 21.6458 15.7226 23.8035C15.1372 24.9119 14.9801 26.114 15.0027 27.3376C15.0221 28.3976 15.1792 29.4447 15.7237 30.3842C16.3952 31.5421 17.3961 32.2233 18.7499 32.1631C20.1058 32.1028 21.097 31.3549 21.5748 30.1076C21.9073 29.2391 22.0257 28.2878 22.1333 27.8283H22.1344Z" fill="#F4530C"/>
<path d="M78.4313 33.6632C77.6759 33.6632 77.0302 33.6858 76.3877 33.6471C76.2284 33.6374 76.0078 33.4641 75.9433 33.3124C75.7926 32.9573 75.7205 32.5688 75.6021 32.1405C75.4159 32.2718 75.2459 32.3901 75.078 32.5117C73.3347 33.7784 71.4169 34.2831 69.2926 33.7827C67.6246 33.3899 66.5247 32.162 66.4214 30.6425C66.2923 28.7452 67.0617 27.3634 68.832 26.792C70.1664 26.3615 71.587 26.1969 72.9698 25.9171C73.6715 25.775 74.3731 25.6351 75.0759 25.5027C75.3664 25.4479 75.474 25.3112 75.4784 24.9948C75.5053 23.1944 74.88 22.4152 73.0839 22.214C72.4361 22.1419 71.757 22.1882 71.1102 22.2915C70.0868 22.4561 69.411 23.0803 69.1118 24.0887C69.0623 24.2576 69.0031 24.4234 68.9321 24.6418C68.2208 24.5493 67.5213 24.4578 66.7819 24.362C67.079 22.6681 67.9388 21.4628 69.5111 20.8667C71.4331 20.1381 73.4154 20.1209 75.3697 20.6945C76.6826 21.0797 77.4725 22.0181 77.6048 23.4258C77.6533 23.9423 77.6985 24.461 77.7038 24.9797C77.7221 26.7005 77.7146 28.4213 77.7286 30.142C77.7383 31.3247 77.7727 32.5074 78.4324 33.6632H78.4313ZM75.5203 27.2354C74.0847 27.5162 72.7686 27.7637 71.4568 28.036C70.9165 28.1479 70.3645 28.2566 69.8597 28.4665C69.1333 28.7689 68.7685 29.3704 68.7793 30.17C68.79 30.989 69.1936 31.5884 69.9222 31.9037C70.3365 32.0834 70.8186 32.1588 71.2749 32.1835C73.2496 32.2922 74.9532 31.1246 75.3223 29.3769C75.4687 28.6849 75.459 27.9607 75.5214 27.2354H75.5203Z" fill="currentColor"/>
<path d="M64.9256 27.7175H55.1971C54.9894 29.153 55.9375 30.9621 57.2375 31.6809C58.5397 32.4009 60.2841 32.289 61.3064 31.3204C61.7348 30.9158 62.0361 30.3594 62.3256 29.8343C62.4773 29.5588 62.5968 29.4253 62.9218 29.4802C63.518 29.5803 64.1206 29.6459 64.7641 29.732C64.4994 30.8609 63.985 31.8068 63.1521 32.5548C60.8491 34.6231 56.5907 34.4305 54.4815 32.1684C53.556 31.1762 53.076 29.9677 52.9286 28.6397C52.6929 26.5111 52.8393 24.4384 54.1489 22.6262C55.6663 20.5266 57.8154 20.0294 60.2088 20.4717C62.5763 20.9086 64.0302 22.4249 64.5651 24.7526C64.7814 25.6964 64.8061 26.6843 64.9256 27.7175ZM62.5193 25.8449C62.5516 23.7249 60.9147 22.0988 58.8593 22.1527C56.8964 22.2043 55.1594 24.0004 55.3112 25.8449H62.5193Z" fill="currentColor"/>
<path d="M49.3299 18.9726C48.2064 18.0977 47.1529 17.2863 46.1154 16.4555C46.0358 16.392 46.0659 16.2015 46.0455 16.0692C46.1886 16.0649 46.3683 16.0046 46.4673 16.0681C46.7945 16.2769 47.0937 16.5276 47.4004 16.7654C48.1278 17.3304 48.8596 17.8889 49.571 18.4711C49.6646 18.5486 49.699 18.7649 49.6635 18.8865C49.6442 18.9522 49.4203 18.9522 49.331 18.9726H49.3299Z" fill="#F4530C"/>
<path d="M119.896 30.7738C119.444 33.0358 117.523 34.7695 115.187 34.9331C114.252 34.9988 113.279 34.9654 112.364 34.7781C110.602 34.4176 109.318 33.3329 108.634 31.6745C107.641 29.2725 107.678 26.8307 108.799 24.4847C109.92 22.1398 112.331 21.0076 114.995 21.4317C117.614 21.8492 119.345 23.5441 119.792 26.171C119.906 26.8393 119.938 27.5227 119.997 28.2007C120.011 28.3556 119.984 28.5149 119.972 28.7334H110.296C110.28 30.7565 111.308 32.4321 112.931 32.9465C114.804 33.5406 116.603 32.9756 117.411 31.0137C117.598 30.5596 117.829 30.4767 118.249 30.5478C118.794 30.6403 119.345 30.6995 119.895 30.7738H119.896ZM117.673 26.8792C117.596 24.5977 116.089 23.1417 113.924 23.2073C112.001 23.2654 110.396 24.9475 110.448 26.8792H117.673Z" fill="currentColor"/>
<path d="M95.6487 20.6579H97.828V33.631H95.9178V31.7541C95.5691 32.1265 95.3173 32.4149 95.045 32.6829C93.3372 34.367 90.1593 34.4112 88.4202 32.7668C87.5744 31.9672 87.3537 30.8889 87.3365 29.8128C87.287 26.7834 87.3193 23.7529 87.3193 20.6762H89.4802C89.4888 20.8774 89.505 21.0851 89.506 21.2918C89.5254 23.9811 89.5104 26.6704 89.5717 29.3586C89.6169 31.3377 90.9363 32.3342 92.8809 31.9575C94.5468 31.6347 95.5175 30.5166 95.5788 28.6301C95.6574 26.2119 95.6294 23.7895 95.6477 21.3692C95.6498 21.1422 95.6477 20.914 95.6477 20.6579H95.6487Z" fill="currentColor"/>
<path d="M52.7575 17.4908C52.8662 16.8569 52.9716 16.2446 53.0857 15.5827C51.9213 15.3417 50.786 15.2319 49.6549 15.5009C48.5551 15.7614 47.8308 16.448 47.5682 17.5768C47.5607 17.6102 47.5478 17.6446 47.5338 17.6791C47.5134 17.8857 47.4671 18.0902 47.423 18.2936C47.4176 18.4345 47.4133 18.5755 47.3928 18.7154C47.4197 19.3407 47.4047 19.9681 47.4047 20.6353H45.4719V22.369H47.4154V33.6266H49.6624V22.3388H52.1182V20.6138H50.066C50.0692 20.6062 50.0714 20.5998 50.0735 20.5922C50.0412 20.5869 50.01 20.5793 49.9821 20.561C49.9304 20.5266 49.9014 20.4717 49.91 20.4093C49.91 20.405 49.9132 20.4007 49.9143 20.3964C49.8874 20.363 49.8637 20.3264 49.8432 20.2877C49.8271 20.2586 49.8239 20.2274 49.8271 20.1973C49.811 20.1661 49.7959 20.1327 49.7851 20.0994C49.6872 19.9013 49.6334 19.6807 49.6517 19.4612C49.4052 18.2753 50.0757 17.4531 51.3036 17.4197C51.7792 17.4068 52.2571 17.4628 52.7585 17.4897L52.7575 17.4908Z" fill="currentColor"/>
<path d="M85.4489 22.3604H83.3031C83.3031 22.5799 83.3031 22.7683 83.3031 22.9555C83.3031 25.2854 83.3031 27.6142 83.3031 29.9441C83.3031 31.6229 83.5635 31.8596 85.2219 31.7047C85.2907 31.6982 85.3585 31.6907 85.4931 31.6778C85.5985 32.3202 85.7018 32.9465 85.8138 33.6245C84.7075 33.8591 83.6292 33.9603 82.5659 33.6019C81.7448 33.3243 81.2896 32.698 81.1841 31.8456C81.1142 31.2785 81.0733 30.7038 81.0701 30.1324C81.0582 27.5711 81.0647 25.0088 81.0647 22.3884H79.486V20.6482H81.0647C81.0647 19.8422 81.1163 19.077 81.0496 18.3216C80.9883 17.6242 81.1895 17.1852 81.8492 16.9C82.3195 16.6966 82.7392 16.377 83.2697 16.0563V20.6009H85.4489V22.3593V22.3604Z" fill="currentColor"/>
<path d="M107.178 23.062C106.927 22.9609 106.717 22.8672 106.501 22.7898C105.166 22.3087 103.992 22.7521 103.543 24.0908C103.231 25.0228 103.09 26.043 103.054 27.0309C102.981 29.0175 103.032 31.0094 103.032 32.9992V33.6256H100.85V20.6611H102.846V22.482C103.204 21.988 103.453 21.5812 103.765 21.2293C104.722 20.1499 106.618 20.0111 107.731 20.9291C107.811 20.9958 107.871 21.1831 107.837 21.2799C107.637 21.8707 107.408 22.4508 107.177 23.0631L107.178 23.062Z" fill="currentColor"/>
<path d="M33.928 0.208774C34.1195 0.122682 34.2444 0.0667217 34.395 0C35.214 1.70248 36.0265 3.37375 36.8132 5.05793C36.867 5.17308 36.7346 5.37648 36.6883 5.5379C36.6205 5.52929 36.5527 5.52176 36.4849 5.51315C35.6423 3.76439 34.7986 2.01564 33.928 0.208774Z" fill="#F4530C"/>
<path d="M27.2138 8.91593C28.4805 9.20434 29.661 9.4723 30.8416 9.74242C31.3452 9.85757 31.8521 9.96196 32.3471 10.1062C32.4924 10.1481 32.6022 10.3128 32.7281 10.4215C32.5537 10.4753 32.3643 10.6055 32.2094 10.5721C30.7652 10.2601 29.3263 9.91999 27.8854 9.58745C27.6594 9.5358 27.4226 9.50782 27.2138 9.4185C27.1062 9.37222 27.0061 9.22048 26.9846 9.10211C26.9749 9.04722 27.1611 8.95683 27.2149 8.91486L27.2138 8.91593Z" fill="#F4530C"/>
<path d="M45.827 0.414305C45.0124 2.09957 44.1977 3.78483 43.3788 5.47977C43.0376 5.46793 42.887 5.3657 43.0516 5.02563C43.7899 3.49964 44.5184 1.9672 45.275 0.449818C45.3363 0.327137 45.5774 0.293776 45.7345 0.218445L45.827 0.414305Z" fill="#F4530C"/>
<path d="M52.7876 9.47015C51.437 9.77793 50.0865 10.0868 48.7359 10.3946C48.3366 10.486 47.9406 10.5969 47.537 10.6561C47.4068 10.6754 47.2572 10.556 47.1163 10.5C47.211 10.4075 47.2917 10.2557 47.4025 10.2299C49.0652 9.83497 50.7311 9.44971 52.4002 9.08489C52.5347 9.05583 52.7069 9.19681 52.8608 9.25815C52.836 9.3281 52.8113 9.39913 52.7865 9.46908L52.7876 9.47015Z" fill="#F4530C"/>
<path d="M34.3111 7.23717C34.1637 7.58907 34.0076 7.69453 33.7214 7.46316C32.7894 6.70985 31.8424 5.97268 30.9169 5.21077C30.82 5.13113 30.8276 4.92666 30.7878 4.77923C30.9363 4.7803 31.1321 4.72004 31.2257 4.79214C32.2578 5.59065 33.2737 6.4096 34.31 7.23717H34.3111Z" fill="#F4530C"/>
<path d="M45.8948 7.72033C45.7721 7.57505 45.6721 7.45775 45.5354 7.29632C46.0745 6.86478 46.5868 6.45154 47.1012 6.04152C47.6048 5.64012 48.1106 5.24087 48.7057 4.76843C48.8177 4.89111 48.9199 5.00196 49.0813 5.17737C47.9772 6.05874 46.9495 6.87877 45.8948 7.72033Z" fill="#F4530C"/>
<path d="M40.1449 0.627388C40.1449 1.87358 40.1406 3.12084 40.1471 4.36703C40.1492 4.71463 39.9867 4.75445 39.665 4.62961C39.665 3.35975 39.6574 2.07805 39.6789 0.798497C39.6811 0.693034 39.8834 0.590799 39.9921 0.487488C40.0427 0.533763 40.0933 0.581113 40.1438 0.627388H40.1449Z" fill="#F4530C"/>
<path d="M50.7612 14.8434C49.5527 14.5669 48.4238 14.314 47.3003 14.0396C47.2142 14.018 47.1647 13.8448 47.099 13.7415C47.2088 13.679 47.3261 13.5531 47.4273 13.566C47.7609 13.608 48.0891 13.6963 48.4195 13.7716C49.2008 13.9492 49.9831 14.1203 50.7591 14.3204C50.8613 14.3473 50.97 14.5163 50.9893 14.6347C50.999 14.6982 50.8247 14.7907 50.7623 14.8445L50.7612 14.8434Z" fill="#F4530C"/>
</svg>
